<mxfile host="65bd71144e">
    <diagram id="cPq5jT7zHiKeh5oC93hh" name="Page-1">
        <mxGraphModel dx="634" dy="494" grid="0" gridSize="10" guides="1" tooltips="1" connect="1" arrows="1" fold="1" page="1" pageScale="1" pageWidth="850" pageHeight="1100" background="#ffffff" math="0" shadow="0">
            <root>
                <mxCell id="0"/>
                <mxCell id="1" parent="0"/>
                <mxCell id="7" value="" style="endArrow=classic;html=1;strokeColor=#000000;exitX=1;exitY=0.5;exitDx=0;exitDy=0;entryX=0;entryY=1;entryDx=0;entryDy=-15;entryPerimeter=0;" edge="1" parent="1" source="6" target="9">
                    <mxGeometry width="50" height="50" relative="1" as="geometry">
                        <mxPoint x="360" y="499" as="sourcePoint"/>
                        <mxPoint x="638" y="417.991341991342" as="targetPoint"/>
                    </mxGeometry>
                </mxCell>
                <mxCell id="8" value="&lt;span style=&quot;background-color: rgb(255 , 255 , 255)&quot;&gt;&lt;font color=&quot;#000000&quot;&gt;Updates&lt;/font&gt;&lt;/span&gt;" style="edgeLabel;html=1;align=center;verticalAlign=middle;resizable=0;points=[];" vertex="1" connectable="0" parent="7">
                    <mxGeometry x="0.2371" y="-1" relative="1" as="geometry">
                        <mxPoint x="-54" y="17" as="offset"/>
                    </mxGeometry>
                </mxCell>
                <mxCell id="9" value="MySQL Fin Database" style="shape=cylinder3;whiteSpace=wrap;html=1;boundedLbl=1;backgroundOutline=1;size=15;fillColor=#6d8764;fontColor=#ffffff;strokeColor=#FFFFFF;" vertex="1" parent="1">
                    <mxGeometry x="656" y="298" width="163" height="120" as="geometry"/>
                </mxCell>
                <mxCell id="10" value="fin-accounts.webservice (API)" style="swimlane;strokeColor=#314354;fillColor=#647687;fontColor=#ffffff;fontSize=10;" vertex="1" parent="1">
                    <mxGeometry x="264" y="107" width="200" height="512" as="geometry"/>
                </mxCell>
                <mxCell id="4" value="/users" style="rounded=1;whiteSpace=wrap;html=1;fillColor=#6d8764;fontColor=#ffffff;strokeColor=none;" vertex="1" parent="10">
                    <mxGeometry x="38" y="35" width="120" height="60" as="geometry"/>
                </mxCell>
                <mxCell id="5" value="/addUser" style="rounded=1;whiteSpace=wrap;html=1;fillColor=#6d8764;fontColor=#ffffff;strokeColor=none;" vertex="1" parent="10">
                    <mxGeometry x="38" y="280" width="120" height="60" as="geometry"/>
                </mxCell>
                <mxCell id="2" value="/accounts" style="rounded=1;whiteSpace=wrap;html=1;fillColor=#6d8764;fontColor=#ffffff;strokeColor=none;" vertex="1" parent="10">
                    <mxGeometry x="38" y="105" width="120" height="60" as="geometry"/>
                </mxCell>
                <mxCell id="6" value="/addAccount" style="rounded=1;whiteSpace=wrap;html=1;fillColor=#6d8764;fontColor=#ffffff;strokeColor=none;" vertex="1" parent="10">
                    <mxGeometry x="38" y="359" width="120" height="60" as="geometry"/>
                </mxCell>
                <mxCell id="13" value="/addTransaction" style="rounded=1;whiteSpace=wrap;html=1;fillColor=#6d8764;fontColor=#ffffff;strokeColor=none;" vertex="1" parent="10">
                    <mxGeometry x="38" y="438" width="120" height="60" as="geometry"/>
                </mxCell>
                <mxCell id="21" value="/transactions" style="rounded=1;whiteSpace=wrap;html=1;fillColor=#6d8764;fontColor=#ffffff;strokeColor=none;" vertex="1" parent="10">
                    <mxGeometry x="38" y="193" width="120" height="60" as="geometry"/>
                </mxCell>
                <mxCell id="11" value="" style="endArrow=classic;html=1;strokeColor=#000000;exitX=1;exitY=0.5;exitDx=0;exitDy=0;entryX=0;entryY=0;entryDx=0;entryDy=82.5;entryPerimeter=0;" edge="1" parent="1" source="5" target="9">
                    <mxGeometry width="50" height="50" relative="1" as="geometry">
                        <mxPoint x="383" y="506" as="sourcePoint"/>
                        <mxPoint x="638" y="394" as="targetPoint"/>
                    </mxGeometry>
                </mxCell>
                <mxCell id="12" value="&lt;span style=&quot;background-color: rgb(255 , 255 , 255)&quot;&gt;&lt;font color=&quot;#000000&quot;&gt;Updates&lt;/font&gt;&lt;/span&gt;" style="edgeLabel;html=1;align=center;verticalAlign=middle;resizable=0;points=[];" vertex="1" connectable="0" parent="11">
                    <mxGeometry x="0.2371" y="-1" relative="1" as="geometry">
                        <mxPoint x="-54" y="6" as="offset"/>
                    </mxGeometry>
                </mxCell>
                <mxCell id="14" value="" style="endArrow=classic;html=1;strokeColor=#000000;exitX=1;exitY=0.5;exitDx=0;exitDy=0;entryX=0.404;entryY=0.985;entryDx=0;entryDy=0;entryPerimeter=0;" edge="1" parent="1" source="13" target="9">
                    <mxGeometry width="50" height="50" relative="1" as="geometry">
                        <mxPoint x="373" y="579.53" as="sourcePoint"/>
                        <mxPoint x="661.635" y="449.65" as="targetPoint"/>
                    </mxGeometry>
                </mxCell>
                <mxCell id="15" value="&lt;span style=&quot;background-color: rgb(255 , 255 , 255)&quot;&gt;&lt;font color=&quot;#000000&quot;&gt;Updates&lt;/font&gt;&lt;/span&gt;" style="edgeLabel;html=1;align=center;verticalAlign=middle;resizable=0;points=[];" vertex="1" connectable="0" parent="14">
                    <mxGeometry x="0.2371" y="-1" relative="1" as="geometry">
                        <mxPoint x="-94" y="46" as="offset"/>
                    </mxGeometry>
                </mxCell>
                <mxCell id="16" value="" style="endArrow=classic;html=1;strokeColor=#000000;exitX=0;exitY=0;exitDx=0;exitDy=37.5;exitPerimeter=0;entryX=1;entryY=0.5;entryDx=0;entryDy=0;" edge="1" parent="1" source="9" target="2">
                    <mxGeometry width="50" height="50" relative="1" as="geometry">
                        <mxPoint x="530" y="288" as="sourcePoint"/>
                        <mxPoint x="464" y="242" as="targetPoint"/>
                    </mxGeometry>
                </mxCell>
                <mxCell id="17" value="&lt;span style=&quot;background-color: rgb(255 , 255 , 255)&quot;&gt;&lt;font color=&quot;#000000&quot;&gt;Reads&lt;/font&gt;&lt;/span&gt;" style="edgeLabel;html=1;align=center;verticalAlign=middle;resizable=0;points=[];" vertex="1" connectable="0" parent="16">
                    <mxGeometry x="0.2371" y="-1" relative="1" as="geometry">
                        <mxPoint as="offset"/>
                    </mxGeometry>
                </mxCell>
                <mxCell id="19" value="" style="endArrow=classic;html=1;strokeColor=#000000;exitX=0;exitY=0;exitDx=0;exitDy=15;exitPerimeter=0;entryX=1;entryY=0.5;entryDx=0;entryDy=0;" edge="1" parent="1" source="9" target="4">
                    <mxGeometry width="50" height="50" relative="1" as="geometry">
                        <mxPoint x="634" y="204.5" as="sourcePoint"/>
                        <mxPoint x="465" y="180" as="targetPoint"/>
                    </mxGeometry>
                </mxCell>
                <mxCell id="20" value="&lt;span style=&quot;background-color: rgb(255 , 255 , 255)&quot;&gt;&lt;font color=&quot;#000000&quot;&gt;Reads&lt;/font&gt;&lt;/span&gt;" style="edgeLabel;html=1;align=center;verticalAlign=middle;resizable=0;points=[];" vertex="1" connectable="0" parent="19">
                    <mxGeometry x="0.2371" y="-1" relative="1" as="geometry">
                        <mxPoint as="offset"/>
                    </mxGeometry>
                </mxCell>
                <mxCell id="22" value="" style="endArrow=classic;html=1;strokeColor=#000000;entryX=1;entryY=0.5;entryDx=0;entryDy=0;exitX=0;exitY=0.5;exitDx=0;exitDy=0;exitPerimeter=0;" edge="1" parent="1" source="9" target="21">
                    <mxGeometry width="50" height="50" relative="1" as="geometry">
                        <mxPoint x="644" y="364" as="sourcePoint"/>
                        <mxPoint x="384" y="332" as="targetPoint"/>
                    </mxGeometry>
                </mxCell>
                <mxCell id="23" value="&lt;span style=&quot;background-color: rgb(255 , 255 , 255)&quot;&gt;&lt;font color=&quot;#000000&quot;&gt;Reads&lt;/font&gt;&lt;/span&gt;" style="edgeLabel;html=1;align=center;verticalAlign=middle;resizable=0;points=[];" vertex="1" connectable="0" parent="22">
                    <mxGeometry x="0.2371" y="-1" relative="1" as="geometry">
                        <mxPoint as="offset"/>
                    </mxGeometry>
                </mxCell>
                <mxCell id="30" value="Fin Frontend Application" style="rounded=1;whiteSpace=wrap;html=1;fillColor=#6d8764;fontColor=#ffffff;strokeColor=none;" vertex="1" parent="1">
                    <mxGeometry x="21" y="322" width="120" height="60" as="geometry"/>
                </mxCell>
                <mxCell id="31" value="" style="endArrow=classic;startArrow=classic;html=1;fontSize=10;strokeColor=#000000;" edge="1" parent="1">
                    <mxGeometry width="50" height="50" relative="1" as="geometry">
                        <mxPoint x="139" y="349.75" as="sourcePoint"/>
                        <mxPoint x="264" y="350" as="targetPoint"/>
                    </mxGeometry>
                </mxCell>
                <mxCell id="33" value="Reads/Updates" style="edgeLabel;html=1;align=center;verticalAlign=middle;resizable=0;points=[];fontSize=10;labelBackgroundColor=#FFFFFF;fontColor=#000000;" vertex="1" connectable="0" parent="31">
                    <mxGeometry x="-0.1505" relative="1" as="geometry">
                        <mxPoint x="9" as="offset"/>
                    </mxGeometry>
                </mxCell>
            </root>
        </mxGraphModel>
    </diagram>
</mxfile>